<svg id="Layer_1" data-name="Layer 1" xmlns="http://www.w3.org/2000/svg" viewBox="0 0 118 117.11"><circle cx="59" cy="58.56" r="30.17" style="fill:#fff"/><polygon points="59 0 46.23 25.33 71.77 25.33 59 0" style="fill:#fff"/><polygon points="59 117.11 46.23 91.78 71.77 91.78 59 117.11" style="fill:#fff"/><polygon points="118 58.56 92.67 71.32 92.67 45.79 118 58.56" style="fill:#fff"/><polygon points="0 58.56 25.33 71.32 25.33 45.79 0 58.56" style="fill:#fff"/><polygon points="17.59 17.15 26.48 44.09 44.53 26.04 17.59 17.15" style="fill:#fff"/><polygon points="100.41 99.96 73.47 91.07 91.52 73.02 100.41 99.96" style="fill:#fff"/><polygon points="100.72 16.84 91.83 43.78 73.78 25.72 100.72 16.84" style="fill:#fff"/><polygon points="17.28 100.28 44.22 91.39 26.17 73.33 17.28 100.28" style="fill:#fff"/></svg>