<svg id="Layer_1" data-name="Layer 1" xmlns="http://www.w3.org/2000/svg" viewBox="0 0 117.34 111.85"><defs><style>.cls-1{fill:none;stroke:#005e8a;stroke-linecap:round;stroke-miterlimit:10;stroke-width:7px;}</style></defs><path class="cls-1" d="M19.67,95.52h25s9.49,2.22,7.71,10.52S45,113.89,45,113.89s-5.33,1-7.7-4.89" transform="translate(-5.31 -5.64)"/><path class="cls-1" d="M30.78,71.67h31.3s8.5-1.25,9.64-9.92c1.11-8.38-7.9-10.68-7.9-10.68s-7.59,0-10.12,6.11" transform="translate(-5.31 -5.64)"/><path class="cls-1" d="M25.3,83.81H82.78s14.59.45,14.59,14.6S84.11,114,84.11,114s-9.45,1.18-13.69-9.22" transform="translate(-5.31 -5.64)"/><path class="cls-1" d="M15.37,78.63S3.67,67.52,11.52,53.44,30.78,42.19,30.78,42.19,28,12.26,56,9.15c0,0,23.56.44,26.82,23.41,0,0,27.41-12.6,36,19.11,0,0,4.15,22.81-15.41,30.22" transform="translate(-5.31 -5.64)"/></svg>